<mxfile host="app.diagrams.net" modified="2023-09-03T21:03:21.276Z" agent="Mozilla/5.0 (Windows NT 10.0; Win64; x64) AppleWebKit/537.36 (KHTML, like Gecko) Chrome/115.0.0.0 Safari/537.36" etag="Q-pfUwlhef88JRLTemje" version="21.7.2" type="device">
  <diagram name="Page-1" id="neWRUP_8X3Azn8JXEmHI">
    <mxGraphModel dx="1434" dy="758" grid="1" gridSize="10" guides="1" tooltips="1" connect="1" arrows="1" fold="1" page="1" pageScale="1" pageWidth="827" pageHeight="1169" background="none" math="0" shadow="0">
      <root>
        <mxCell id="0" />
        <mxCell id="1" parent="0" />
        <mxCell id="NNzGRWnLlYYdZZi2wiGi-3" value="&lt;p style=&quot;margin:0px;margin-top:4px;text-align:center;&quot;&gt;&amp;lt;&amp;lt;actor&amp;gt;&amp;gt;&lt;br&gt;&lt;b&gt;Utilisateur&lt;/b&gt;&lt;/p&gt;" style="shape=rect;html=1;overflow=fill;html=1;whiteSpace=wrap;align=center;" parent="1" vertex="1">
          <mxGeometry x="130" y="230" width="110" height="160" as="geometry" />
        </mxCell>
        <mxCell id="NNzGRWnLlYYdZZi2wiGi-4" value="Utilisateur" style="shape=umlActor;html=1;verticalLabelPosition=bottom;verticalAlign=top;align=center;" parent="1" vertex="1">
          <mxGeometry x="170" y="280" width="30" height="60" as="geometry" />
        </mxCell>
        <mxCell id="NNzGRWnLlYYdZZi2wiGi-6" value="Authentification" style="shape=rect;html=1;verticalAlign=top;fontStyle=1;whiteSpace=wrap;align=center;" parent="1" vertex="1">
          <mxGeometry x="340" y="192.5" width="270" height="235" as="geometry" />
        </mxCell>
        <mxCell id="NNzGRWnLlYYdZZi2wiGi-7" value="CrÃ©ation compte" style="shape=ellipse;html=1;strokeWidth=3;fontStyle=1;whiteSpace=wrap;align=center;perimeter=ellipsePerimeter;" parent="1" vertex="1">
          <mxGeometry x="415" y="240" width="120" height="60" as="geometry" />
        </mxCell>
        <mxCell id="NNzGRWnLlYYdZZi2wiGi-8" value="Connexion" style="shape=ellipse;html=1;strokeWidth=3;fontStyle=1;whiteSpace=wrap;align=center;perimeter=ellipsePerimeter;" parent="1" vertex="1">
          <mxGeometry x="415" y="330" width="120" height="60" as="geometry" />
        </mxCell>
        <mxCell id="GPk00SvUi3PZ50ELn7o--1" value="" style="edgeStyle=none;html=1;endArrow=none;verticalAlign=bottom;rounded=0;exitX=0.5;exitY=0.5;exitDx=0;exitDy=0;exitPerimeter=0;entryX=0;entryY=0.5;entryDx=0;entryDy=0;" edge="1" parent="1" source="NNzGRWnLlYYdZZi2wiGi-4" target="NNzGRWnLlYYdZZi2wiGi-8">
          <mxGeometry width="160" relative="1" as="geometry">
            <mxPoint x="330" y="390" as="sourcePoint" />
            <mxPoint x="490" y="390" as="targetPoint" />
          </mxGeometry>
        </mxCell>
        <mxCell id="GPk00SvUi3PZ50ELn7o--2" value="" style="edgeStyle=none;html=1;endArrow=none;verticalAlign=bottom;rounded=0;exitX=0.5;exitY=0.5;exitDx=0;exitDy=0;exitPerimeter=0;entryX=0;entryY=0.5;entryDx=0;entryDy=0;" edge="1" parent="1" source="NNzGRWnLlYYdZZi2wiGi-4" target="NNzGRWnLlYYdZZi2wiGi-7">
          <mxGeometry width="160" relative="1" as="geometry">
            <mxPoint x="330" y="390" as="sourcePoint" />
            <mxPoint x="490" y="390" as="targetPoint" />
          </mxGeometry>
        </mxCell>
      </root>
    </mxGraphModel>
  </diagram>
</mxfile>
